<svg xmlns="http://www.w3.org/2000/svg" viewBox="0 0 64 64">
  <rect width="64" height="64" rx="14" fill="#F2EBE0"/>
  <g transform="translate(12,8.15) scale(0.84) translate(-3.6,-15.2)">
    <path d="M19.76 72L5.76 72Q4.88 72 4.24 71.36Q3.60 70.72 3.60 69.84L3.60 69.84L3.60 17.36Q3.60 16.48 4.24 15.84Q4.88 15.20 5.76 15.20L5.76 15.20L19.76 15.20Q20.64 15.20 21.28 15.84Q21.92 16.48 21.92 17.36L21.92 17.36L21.92 43.28L28.96 31.76Q29.12 31.44 29.68 30.92Q30.24 30.40 31.28 30.40L31.28 30.40L47.44 30.40Q48.24 30.40 48.80 30.96Q49.36 31.52 49.36 32.32L49.36 32.32Q49.36 32.64 49.24 33Q49.12 33.36 48.96 33.52L48.96 33.52L38 49.12L50.96 69.04Q51.28 69.52 51.28 70.08L51.28 70.08Q51.28 70.88 50.72 71.44Q50.16 72 49.36 72L49.36 72L32.56 72Q31.36 72 30.80 71.40Q30.24 70.80 30.08 70.64L30.08 70.64L21.92 57.04L21.92 69.84Q21.92 70.72 21.28 71.36Q20.64 72 19.76 72L19.76 72Z" fill="#2B1F14"/>
  </g>
</svg>
